<?xml version="1.0" encoding="utf-8"?>
<!-- Generator: Adobe Illustrator 23.0.2, SVG Export Plug-In . SVG Version: 6.00 Build 0)  -->
<svg version="1.1" id="レイヤー_1" xmlns="http://www.w3.org/2000/svg" xmlns:xlink="http://www.w3.org/1999/xlink" x="0px"
	 y="0px" width="120px" height="104px" viewBox="0 0 120 104" style="enable-background:new 0 0 120 104;" xml:space="preserve">
<style type="text/css">
	.st0{fill-rule:evenodd;clip-rule:evenodd;fill:#004E87;}
	.st1{fill:#CD1B2F;}
	.st2{fill:#004E87;}
</style>
<g>
	<path class="st0" d="M80.4,83.6c27.7-19.1,41-48,30-64.2C99.1,3.1,67.6,5.5,39.9,24.6C12,44-1.3,72.9,9.9,89.1S52.7,103,80.4,83.6z
		 M3.9,93.1c-11.7-17,3.9-48.5,34.7-70c31-21.5,65.8-25.2,77.5-7.9c11.7,17-3.9,48.5-35,70C50.3,106.7,15.6,110.4,3.9,93.1z"/>
	<path class="st1" d="M69.9,17.3c4.7,0,8.6-3.9,8.6-8.7S74.6,0,69.9,0c-4.7,0-8.6,3.9-8.6,8.7S65.2,17.3,69.9,17.3z"/>
	<path class="st2" d="M32.6,32v25.7c0,3.9-3.1,7.1-7,7.1h-5v11.8h6c9.9,0,17.7-8.1,17.7-17.8V32H32.6z"/>
	<path class="st2" d="M96.3,32H85.8H74.1H57.7c-6.5,0-12.3,5.2-12.3,12.1c0,5.2,2.6,8.4,6.3,11.3l8.3,6.3c2.6,2.4,0.8,4.7-2.6,4.7
		h-12v10.2H61c6.5,0,12-4.2,12-12.1c0-6.3-3.7-8.9-5.5-10.7c-1.8-1.8-7.6-5.5-10.2-7.6c-1.8-1.6-0.3-3.4,2.1-3.4h14.6v33.8h11.7
		V42.7h10.4V32L96.3,32z"/>
</g>
</svg>
